<svg xmlns="http://www.w3.org/2000/svg" width="129.819" height="203.272" viewBox="0 0 129.819 203.272">
  <defs>
    <style>
      .cls-1 {
        fill: #2f4057;
      }
    </style>
  </defs>
  <g id="Group_612" data-name="Group 612" transform="translate(8846.955 -9522.704)">
    <g id="logo_white" data-name="logo white" transform="translate(-8846.955 9522.704)">
      <rect id="Rectangle_3063" data-name="Rectangle 3063" class="cls-1" width="125.774" height="29.503" rx="14.752" transform="translate(4.044 173.769)"/>
      <path id="Path_1253" data-name="Path 1253" class="cls-1" d="M2267.216,312.1l-1.746-.218-1.847-.375-2.221-.276h-1.779s-2.723-10.064-9.71-13.928-14.63-2.879-20.639-10.921-22.878-44.265-22.878-44.265,3.411-1.459,7.6,4.163,10.021,14.172,21.139,12.838,10.039-6.212,9.9-7.979-4.755-17.506-8.38-23.764-15.479-25.384-18.437-28.318-4.932-3.848-10.746-6.636-17.823-6.038-21.11-9.123-6.1-9.08-6.1-9.08,59.381,6.06,90.963,43.3-2.481,85.945-2.481,85.945a8.5,8.5,0,0,0-1.9,6.926A5.552,5.552,0,0,0,2267.216,312.1Z" transform="translate(-2161.313 -172.569)"/>
      <path id="Path_1254" data-name="Path 1254" class="cls-1" d="M2181.445,174.043s2.024,12.285,10.021,17.614,26.849,10.589,30.411,15.035,18.007,25.427,19.809,31.431,3.551,12.348,3.551,12.348a7.3,7.3,0,0,1-7.034-2.207c-3.18-3.347-7.588-12.073-13.582-13.5s-13.847-2.022-15.554-.364-3.037,3.123-2.085,6.5,10.441,27.015,16.911,37.857,12.137,21.045,18.683,23.022,11.985,3.425,14.655,5.94a28.382,28.382,0,0,1,4.831,7.017s-34.5,13.216-63.93-10.925c-18.56-16.564-29.14-38.49-24.529-84.023a419.433,419.433,0,0,1,5.4-46.244Z" transform="translate(-2172.527 -173.546)"/>
    </g>
  </g>
</svg>
