<svg xmlns="http://www.w3.org/2000/svg" xmlns:xlink="http://www.w3.org/1999/xlink" width="129.801" height="203.244" viewBox="0 0 129.801 203.244">
  <defs>
    <style>
      .cls-1 {
        fill: url(#linear-gradient);
      }

      .cls-2 {
        fill: #658198;
      }
    </style>
    <linearGradient id="linear-gradient" y1="0.5" x2="1" y2="0.5" gradientUnits="objectBoundingBox">
      <stop offset="0" stop-color="#ffc87c"/>
      <stop offset="1" stop-color="#fca583"/>
    </linearGradient>
  </defs>
  <g id="Group_613" data-name="Group 613" transform="translate(9064 -9785)">
    <g id="logo_colored" data-name="logo colored" transform="translate(-9064 9785)">
      <g id="Group_431" data-name="Group 431">
        <rect id="Rectangle_3064" data-name="Rectangle 3064" class="cls-1" width="125.757" height="29.499" rx="14.75" transform="translate(4.044 173.746)"/>
        <path id="Path_1255" data-name="Path 1255" class="cls-2" d="M2267.2,312.084l-1.746-.218-1.846-.375-2.221-.276h-1.779s-2.722-10.063-9.708-13.926-14.628-2.879-20.636-10.919-22.875-44.259-22.875-44.259,3.411-1.459,7.6,4.162,10.02,14.17,21.136,12.837,10.037-6.211,9.9-7.978-4.754-17.5-8.379-23.761-15.477-25.381-18.436-28.314-4.931-3.847-10.744-6.635-17.821-6.037-21.106-9.122-6.1-9.079-6.1-9.079,59.373,6.059,90.95,43.292-2.481,85.933-2.481,85.933a8.5,8.5,0,0,0-1.9,6.925A5.539,5.539,0,0,0,2267.2,312.084Z" transform="translate(-2161.317 -172.569)"/>
        <path id="Path_1256" data-name="Path 1256" class="cls-2" d="M2181.444,174.043s2.024,12.283,10.021,17.612,26.845,10.588,30.406,15.033,18.005,25.423,19.806,31.427,3.551,12.346,3.551,12.346a7.3,7.3,0,0,1-7.033-2.207c-3.18-3.347-7.587-12.072-13.58-13.494s-13.844-2.021-15.552-.364-3.036,3.123-2.085,6.5,10.44,27.012,16.909,37.852,12.136,21.043,18.681,23.019,11.984,3.424,14.653,5.939a28.389,28.389,0,0,1,4.831,7.016s-34.5,13.215-63.922-10.924c-18.557-16.562-29.136-38.485-24.526-84.012a419.427,419.427,0,0,1,5.4-46.238Z" transform="translate(-2172.528 -173.546)"/>
      </g>
    </g>
  </g>
</svg>
