<svg xmlns="http://www.w3.org/2000/svg" xmlns:xlink="http://www.w3.org/1999/xlink" width="602.711" height="678.219" viewBox="0 0 602.711 678.219">
  <defs>
    <linearGradient id="linear-gradient" x1="0.758" y1="0.123" x2="0.123" y2="0.615" gradientUnits="objectBoundingBox">
      <stop offset="0" stop-color="#ffc87c"/>
      <stop offset="1" stop-color="#fca583"/>
    </linearGradient>
  </defs>
  <g id="Group_343" transform="translate(4914.587 -18955.801)">
    <ellipse id="Ellipse_1194" cx="47.822" cy="47.822" rx="47.822" ry="47.822" transform="translate(-4705.762 19344.361)" fill="url(#linear-gradient)"/>
    <g id="Ellipse_1195" transform="translate(-4763.272 19290.873)" fill="none" stroke="#fff" stroke-width="7">
      <ellipse cx="104.075" cy="104.212" rx="104.075" ry="104.212" stroke="none"/>
      <ellipse cx="104.075" cy="104.212" rx="100.575" ry="100.712" fill="none"/>
    </g>
    <g id="Ellipse_1193" transform="translate(-4899.317 19150.348)" fill="none" stroke="#fff" stroke-width="7">
      <ellipse cx="241.376" cy="241.836" rx="241.376" ry="241.836" stroke="none"/>
      <ellipse cx="241.376" cy="241.836" rx="237.876" ry="238.336" fill="none"/>
    </g>
    <g id="Ellipse_1199" transform="translate(-4737.125 19307.107)" fill="#fff" stroke="#707070" stroke-width="1">
      <ellipse cx="10.305" cy="10.305" rx="10.305" ry="10.305" stroke="none"/>
      <ellipse cx="10.305" cy="10.305" rx="9.805" ry="9.805" fill="none"/>
    </g>
    <g id="Ellipse_1330" transform="translate(-4768.125 19366.211)" fill="#fff" stroke="#707070" stroke-width="1">
      <ellipse cx="10.305" cy="10.305" rx="10.305" ry="10.305" stroke="none"/>
      <ellipse cx="10.305" cy="10.305" rx="9.805" ry="9.805" fill="none"/>
    </g>
    <g id="Ellipse_1331" transform="translate(-4569.553 19366.211)" fill="#fff" stroke="#707070" stroke-width="1">
      <ellipse cx="10.305" cy="10.305" rx="10.305" ry="10.305" stroke="none"/>
      <ellipse cx="10.305" cy="10.305" rx="9.805" ry="9.805" fill="none"/>
    </g>
    <g id="Ellipse_1332" transform="translate(-4581.858 19433.203)" fill="#fff" stroke="#707070" stroke-width="1">
      <ellipse cx="10.305" cy="10.305" rx="10.305" ry="10.305" stroke="none"/>
      <ellipse cx="10.305" cy="10.305" rx="9.805" ry="9.805" fill="none"/>
    </g>
    <g id="Ellipse_1333" transform="translate(-4630.728 19479.203)" fill="#fff" stroke="#707070" stroke-width="1">
      <ellipse cx="10.305" cy="10.305" rx="10.305" ry="10.305" stroke="none"/>
      <ellipse cx="10.305" cy="10.305" rx="9.805" ry="9.805" fill="none"/>
    </g>
    <g id="Ellipse_1334" transform="translate(-4705.762 19479.203)" fill="#fff" stroke="#707070" stroke-width="1">
      <ellipse cx="10.305" cy="10.305" rx="10.305" ry="10.305" stroke="none"/>
      <ellipse cx="10.305" cy="10.305" rx="9.805" ry="9.805" fill="none"/>
    </g>
    <g id="Ellipse_1335" transform="translate(-4757.734 19433.203)" fill="#fff" stroke="#707070" stroke-width="1">
      <ellipse cx="10.305" cy="10.305" rx="10.305" ry="10.305" stroke="none"/>
      <ellipse cx="10.305" cy="10.305" rx="9.805" ry="9.805" fill="none"/>
    </g>
    <g id="Ellipse_1205" transform="translate(-4665.52 19144.574)" fill="#fff" stroke="#707070" stroke-width="1">
      <ellipse cx="7.579" cy="7.579" rx="7.579" ry="7.579" stroke="none"/>
      <ellipse cx="7.579" cy="7.579" rx="7.079" ry="7.079" fill="none"/>
    </g>
    <g id="Group_291" transform="translate(-4682.261 19371.359)">
      <path id="Path_642" d="M38.6,33.6a3.2,3.2,0,0,1-.071-2.045c1.485-3.925,5.164-16.541-4.633-24.724C22.095-3.032,0,.688,0,.688S.981,24.145,8.362,31.844c6.977,7.275,16,10.082,27.933,2.394C36.89,33.855,37.9,34.116,38.6,33.6Z" transform="translate(9.391 0) rotate(14)" fill="#658198"/>
      <path id="Path_643" d="M26.951,39.04A7.361,7.361,0,0,0,23.8,36.426c-1.69-.481-4.294-.565-6.431-3.218-2.1-2.61-6.91-10.23-8.431-14.639.037.109-.037-.09-.008-.026a4.41,4.41,0,0,0,.6-.2c-.036-.013-.812.1-.483.023a.238.238,0,0,1,.1-.023c.321.009,2.708-.443,3.857.245,1.755,1.051,2.851,3.533,4.36,3.977s3.8.007,3.908-.423a32.908,32.908,0,0,0-2.312-5.751A65.741,65.741,0,0,0,12.176,7.3C11.1,6.37,7.07,5.237,5.161,4.623S1.561,3.338,0,0" transform="matrix(0.998, 0.07, -0.07, 0.998, 11.217, 1.207)" fill="none" stroke="#fff" stroke-width="2"/>
    </g>
    <text id="Independence_self-sufficiency" transform="translate(-4521.903 19353.869)" fill="#292929" stroke="#1f2e42" stroke-width="0.5" font-size="17" font-family="Inter" letter-spacing="0.05em"><tspan x="0" y="16">Independence &amp; </tspan><tspan x="0" y="38">self-sufficiency</tspan></text>
    <text id="Interdependence_collaboration" transform="translate(-4533.563 19440.734)" fill="#292929" stroke="#1f2e42" stroke-width="0.5" font-size="17" font-family="Inter" letter-spacing="0.05em"><tspan x="0" y="16">Interdependence &amp; </tspan><tspan x="0" y="38">collaboration</tspan></text>
    <text id="Prosumer" transform="translate(-4625.092 19538.363)" fill="#292929" stroke="#1f2e42" stroke-width="0.5" font-size="17" font-family="Inter" letter-spacing="0.05em"><tspan x="0" y="0">Prosumer</tspan></text>
    <text id="Decentralisation" transform="translate(-4802.322 19538.363)" fill="#292929" stroke="#1f2e42" stroke-width="0.5" font-size="17" font-family="Inter" letter-spacing="0.05em"><tspan x="0" y="0">Decentralisation</tspan></text>
    <text id="Ownership_sharing_economy" transform="translate(-4914.087 19437.238)" fill="#292929" stroke="#1f2e42" stroke-width="0.5" font-size="17" font-family="Inter" letter-spacing="0.05em"><tspan x="0" y="16">Ownership &amp; </tspan><tspan x="0" y="38">sharing economy</tspan></text>
    <text id="Balance" transform="translate(-4860.622 19372.211)" fill="#292929" stroke="#1f2e42" stroke-width="0.5" font-size="17" font-family="Inter" letter-spacing="0.05em"><tspan x="0" y="0">Balance</tspan></text>
    <text id="Systems" transform="translate(-4823.12 19315.66)" fill="#292929" stroke="#1f2e42" stroke-width="0.5" font-size="17" font-family="Inter" letter-spacing="0.05em"><tspan x="0" y="0">Systems</tspan></text>
    <text id="Impact_brands" transform="translate(-4472.192 19208.105) rotate(-45)" fill="#292929" stroke="#1f2e42" stroke-width="0.2" font-size="12" font-family="Inter" letter-spacing="0.05em"><tspan x="0" y="0">Impact brands</tspan></text>
    <text id="Public_benefit" transform="translate(-4407.348 19323.676) rotate(-16)" fill="#292929" stroke="#1f2e42" stroke-width="0.2" font-size="13" font-family="Inter" letter-spacing="0.05em"><tspan x="0" y="0">Public benefit</tspan></text>
    <text id="Conscious_consumer" transform="matrix(0.848, -0.53, 0.53, 0.848, -4432.468, 19265.135)" fill="#292929" stroke="#1f2e42" stroke-width="0.2" font-size="13" font-family="Inter" letter-spacing="0.05em"><tspan x="0" y="0">Conscious consumer</tspan></text>
    <text id="Sustainability" transform="matrix(0.914, -0.407, 0.407, 0.914, -4417.549, 19292.715)" fill="#292929" stroke="#1f2e42" stroke-width="0.2" font-size="13" font-family="Inter" letter-spacing="0.05em"><tspan x="0" y="0">Sustainability</tspan></text>
    <text id="Global_issues" transform="matrix(0.799, -0.602, 0.602, 0.799, -4447.648, 19239.445)" fill="#292929" stroke="#1f2e42" stroke-width="0.2" font-size="13" font-family="Inter" letter-spacing="0.05em"><tspan x="0" y="0">Global issues</tspan></text>
    <text id="Tragedy_of_The_Commons" transform="translate(-4653.736 19130) rotate(-90)" fill="#292929" stroke="#1f2e42" stroke-width="0.2" font-size="13" font-family="Inter" letter-spacing="0.05em"><tspan x="0" y="0">Tragedy of The Commons</tspan></text>
    <text id="The_Common_good_Public_benefit" transform="translate(-4749.853 19216.867)" fill="#292929" stroke="#1f2e42" stroke-width="0.5" font-size="17" font-family="Inter" letter-spacing="0.05em"><tspan x="5.53" y="16">The Common good/</tspan><tspan x="31.191" y="38">Public benefit</tspan></text>
    <g id="Ellipse_1208" transform="translate(-4496.753 19213.951)" fill="#fff" stroke="#707070" stroke-width="1">
      <ellipse cx="7.579" cy="7.579" rx="7.579" ry="7.579" stroke="none"/>
      <ellipse cx="7.579" cy="7.579" rx="7.079" ry="7.079" fill="none"/>
    </g>
    <g id="Ellipse_1209" transform="translate(-4671.762 19282.123)" fill="#fff" stroke="#658198" stroke-width="4">
      <ellipse cx="12.565" cy="12.565" rx="12.565" ry="12.565" stroke="none"/>
      <ellipse cx="12.565" cy="12.565" rx="10.565" ry="10.565" fill="none"/>
    </g>
    <g id="Ellipse_1210" transform="translate(-4474.524 19239.523)" fill="#fff" stroke="#707070" stroke-width="1">
      <ellipse cx="7.328" cy="7.328" rx="7.328" ry="7.328" stroke="none"/>
      <ellipse cx="7.328" cy="7.328" rx="6.828" ry="6.828" fill="none"/>
    </g>
    <path id="Path_1006" d="M-4657.622,19282.123s58.64-72.527,163.187-56.145" fill="none" stroke="#658198" stroke-width="1"/>
    <path id="Path_1007" d="M-4662.975,19272.6s55.186-43.086,130.606-30.822" transform="matrix(0.875, -0.485, 0.485, 0.875, -9859.509, 199.65)" fill="none" stroke="#fff" stroke-width="1.5"/>
    <path id="Path_1009" d="M-4664.845,19268.744s71.212-24.012,138.007.863" transform="matrix(0.875, -0.485, 0.485, 0.875, -9856.185, 202.924)" fill="none" stroke="#fff" stroke-width="1.5"/>
    <path id="Path_1010" d="M-4665.778,19265.443s88.254-.885,140.47,28.758" transform="matrix(0.875, -0.485, 0.485, 0.875, -9853.59, 205.918)" fill="none" stroke="#fff" stroke-width="1.5"/>
    <path id="Path_1011" d="M-4662.345,19260.863s84.67,14.666,139.361,56.977" transform="matrix(0.875, -0.485, 0.485, 0.875, -9853.615, 211.211)" fill="none" stroke="#fff" stroke-width="1.5"/>
    <path id="Path_1012" d="M-4659.2,19234.822s83.285,37.65,135.028,85.037" transform="matrix(0.875, -0.485, 0.485, 0.875, -9844.184, 235.309)" fill="none" stroke="#fff" stroke-width="1.5"/>
    <path id="Path_1008" d="M-4657.622,19267.4s4.534-41.3,60.922-105.529" transform="matrix(0.875, -0.485, 0.485, 0.875, -9928.509, 172.452)" fill="none" stroke="#658198" stroke-width="1"/>
    <g id="Ellipse_1329" transform="translate(-4605.616 19307.252)" fill="#fff" stroke="#707070" stroke-width="1">
      <ellipse cx="10.305" cy="10.305" rx="10.305" ry="10.305" stroke="none"/>
      <ellipse cx="10.305" cy="10.305" rx="9.805" ry="9.805" fill="none"/>
    </g>
    <text id="Agatonomy" transform="translate(-4556.299 19315.66)" fill="#292929" stroke="#1f2e42" stroke-width="0.5" font-size="17" font-family="Inter" letter-spacing="0.05em"><tspan x="0" y="0">Agatonomy</tspan></text>
    <g id="Ellipse_1206" transform="translate(-4444.988 19290.199)" fill="#fff" stroke="#707070" stroke-width="1">
      <ellipse cx="7.328" cy="7.328" rx="7.328" ry="7.328" stroke="none"/>
      <ellipse cx="7.328" cy="7.328" rx="6.828" ry="6.828" fill="none"/>
    </g>
    <g id="Ellipse_1202" transform="translate(-4435.992 19317.141)" fill="#fff" stroke="#707070" stroke-width="1">
      <ellipse cx="7.619" cy="7.619" rx="7.619" ry="7.619" stroke="none"/>
      <ellipse cx="7.619" cy="7.619" rx="7.119" ry="7.119" fill="none"/>
    </g>
    <g id="Ellipse_1207" transform="translate(-4459.021 19263.506)" fill="#fff" stroke="#707070" stroke-width="1">
      <ellipse cx="7.619" cy="7.619" rx="7.619" ry="7.619" stroke="none"/>
      <ellipse cx="7.619" cy="7.619" rx="7.119" ry="7.119" fill="none"/>
    </g>
  </g>
</svg>
