<svg xmlns="http://www.w3.org/2000/svg" xmlns:xlink="http://www.w3.org/1999/xlink" width="924.579" height="950.526" viewBox="0 0 924.579 950.526">
  <defs>
    <linearGradient id="linear-gradient" x1="0.758" y1="0.123" x2="0.123" y2="0.615" gradientUnits="objectBoundingBox">
      <stop offset="0" stop-color="#ffc87c"/>
      <stop offset="1" stop-color="#fca583"/>
    </linearGradient>
  </defs>
  <g id="Group_824" data-name="Group 824" transform="translate(8214.128 -11182.916)">
    <g id="Ellipse_2053" data-name="Ellipse 2053" transform="translate(-8003.342 11376.185)" fill="none" stroke="#77838d" stroke-width="7">
      <ellipse cx="258.984" cy="259.476" rx="258.984" ry="259.476" stroke="none"/>
      <ellipse cx="258.984" cy="259.476" rx="255.484" ry="255.976" fill="none"/>
    </g>
    <text id="Interdependence_collaboration" data-name="Interdependence 
&amp; collaboration" transform="translate(-7834.433 11733.389)" fill="#fff" stroke="#fff" stroke-width="0.5" font-size="17" font-family="Inter" letter-spacing="0.05em" opacity="0.5"><tspan x="15.666" y="16">Interdependence </tspan><tspan x="24.202" y="40">&amp; collaboration</tspan></text>
    <text id="Sensemaking" transform="translate(-7950.831 11573.57)" fill="#fff" stroke="#fff" stroke-width="0.5" font-size="17" font-family="Inter" letter-spacing="0.05em" opacity="0.5"><tspan x="0" y="0">Sensemaking</tspan></text>
    <ellipse id="Ellipse_2054" data-name="Ellipse 2054" cx="75.251" cy="74.988" rx="75.251" ry="74.988" transform="translate(-7819.862 11558.491)" fill="url(#linear-gradient)"/>
    <g id="Ellipse_2055" data-name="Ellipse 2055" transform="translate(-7824.364 11558.015)" fill="none" stroke="#77838d" stroke-width="7">
      <ellipse cx="77.942" cy="78.045" rx="77.942" ry="78.045" stroke="none"/>
      <ellipse cx="77.942" cy="78.045" rx="74.442" ry="74.545" fill="none"/>
    </g>
    <ellipse id="Ellipse_2056" data-name="Ellipse 2056" cx="9.549" cy="9.549" rx="9.549" ry="9.549" transform="translate(-7819.862 11587.751)" fill="#77838d"/>
    <ellipse id="Ellipse_2057" data-name="Ellipse 2057" cx="9.549" cy="9.549" rx="9.549" ry="9.549" transform="translate(-7690.807 11587.751)" fill="#77838d"/>
    <ellipse id="Ellipse_2058" data-name="Ellipse 2058" cx="9.549" cy="9.549" rx="9.549" ry="9.549" transform="translate(-7819.862 11665.73)" fill="#77838d"/>
    <ellipse id="Ellipse_2059" data-name="Ellipse 2059" cx="9.549" cy="9.549" rx="9.549" ry="9.549" transform="translate(-7754.16 11703.896)" fill="#77838d"/>
    <ellipse id="Ellipse_2085" data-name="Ellipse 2085" cx="9.549" cy="9.549" rx="9.549" ry="9.549" transform="translate(-7754.16 11549.942)" fill="#77838d"/>
    <ellipse id="Ellipse_2060" data-name="Ellipse 2060" cx="9.549" cy="9.549" rx="9.549" ry="9.549" transform="translate(-7690.807 11665.73)" fill="#77838d"/>
    <path id="Path_1392" data-name="Path 1392" d="M39.565,34.436a3.279,3.279,0,0,1-.073-2.1C41.014,28.317,44.784,15.386,34.743,7,22.646-3.108,0,.705,0,.705S1.005,24.748,8.571,32.638c7.151,7.457,16.4,10.333,28.63,2.454C37.81,34.7,38.841,34.967,39.565,34.436Z" transform="translate(-7761.379 11615.975) rotate(14)" fill="#658198"/>
    <path id="Path_1393" data-name="Path 1393" d="M28.4,41.529s-.405-.652-.683-1.007A6.659,6.659,0,0,0,24.84,38.3c-1.733-.493-4.4-.579-6.592-3.3-2.156-2.675-7.083-10.486-8.641-15,.038.112-.038-.093-.009-.026a4.52,4.52,0,0,0,.62-.208c-.037-.014-.832.1-.5.024a.244.244,0,0,1,.1-.024c.329.009,2.776-.454,3.953.251,1.8,1.078,2.922,3.621,4.469,4.076s3.893.007,4.006-.433a33.729,33.729,0,0,0-2.369-5.894,67.381,67.381,0,0,0-6.956-9.316c-1.1-.953-5.234-2.114-7.19-2.743A7.409,7.409,0,0,1,.77,1.618C.734,1.557.142.3,0,0" transform="matrix(0.998, 0.07, -0.07, 0.998, -7759.887, 11616.214)" fill="none" stroke="#fdb77f" stroke-width="2.2"/>
    <path id="Path_1394" data-name="Path 1394" d="M0,0" transform="translate(-7743.008 11441.749)" fill="none" stroke="#707070" stroke-width="1"/>
    <text id="Money_value" data-name="Money &amp; value" transform="translate(-7662.063 11562.57)" fill="#fff" stroke="#fff" stroke-width="0.5" font-size="17" font-family="Inter" letter-spacing="0.05em" opacity="0.5"><tspan x="0" y="16">Money &amp; value</tspan></text>
    <text id="Independence_self-sufficiency" data-name="Independence &amp; self-sufficiency" transform="translate(-7661.729 11673.184)" fill="#fff" stroke="#fff" stroke-width="0.5" font-size="17" font-family="Inter" letter-spacing="0.05em" opacity="0.5"><tspan x="0" y="16">Independence &amp; </tspan><tspan x="0" y="40">self-sufficiency</tspan></text>
    <text id="Global_issues" data-name="Global issues" transform="translate(-7889.363 11392.966) rotate(-121)" fill="#fff" stroke="#fff" stroke-width="0.2" font-size="16" font-family="Inter" letter-spacing="0.05em" opacity="0.35"><tspan x="0" y="0">Global issues</tspan></text>
    <g id="Group_520" data-name="Group 520" transform="translate(-7568.897 11449.814)">
      <ellipse id="Ellipse_1943" data-name="Ellipse 1943" cx="10.513" cy="10.513" rx="10.513" ry="10.513" transform="translate(40.962 56.151)" fill="#77838d"/>
      <ellipse id="Ellipse_1947" data-name="Ellipse 1947" cx="10.513" cy="10.513" rx="10.513" ry="10.513" transform="translate(0)" fill="#77838d"/>
    </g>
    <g id="Group_521" data-name="Group 521" transform="translate(-7547.873 11566.474)">
      <ellipse id="Ellipse_1923" data-name="Ellipse 1923" cx="10.513" cy="10.513" rx="10.513" ry="10.513" transform="matrix(0.695, 0.719, -0.719, 0.695, 15.124, 202.06)" fill="#77838d"/>
      <ellipse id="Ellipse_1936" data-name="Ellipse 1936" cx="10.513" cy="10.513" rx="10.513" ry="10.513" transform="matrix(0.695, 0.719, -0.719, 0.695, 60.043, 69.543)" fill="#77838d"/>
      <ellipse id="Ellipse_1924" data-name="Ellipse 1924" cx="10.513" cy="10.513" rx="10.513" ry="10.513" transform="matrix(0.695, 0.719, -0.719, 0.695, 47.486, 139.087)" fill="#77838d"/>
      <ellipse id="Ellipse_1937" data-name="Ellipse 1937" cx="10.513" cy="10.513" rx="10.513" ry="10.513" transform="matrix(0.695, 0.719, -0.719, 0.695, 52.642, 0)" fill="#77838d"/>
    </g>
    <g id="Group_522" data-name="Group 522" transform="translate(-7877.853 11824.675)">
      <ellipse id="Ellipse_1925" data-name="Ellipse 1925" cx="10.513" cy="10.513" rx="10.513" ry="10.513" transform="translate(281.379)" fill="#77838d"/>
      <ellipse id="Ellipse_1926" data-name="Ellipse 1926" cx="10.513" cy="10.513" rx="10.513" ry="10.513" transform="translate(218.404 38.343)" fill="#77838d"/>
      <ellipse id="Ellipse_1938" data-name="Ellipse 1938" cx="10.513" cy="10.513" rx="10.513" ry="10.513" transform="translate(73.071 51.946)" fill="#77838d"/>
      <ellipse id="Ellipse_1927" data-name="Ellipse 1927" cx="10.513" cy="10.513" rx="10.513" ry="10.513" transform="translate(146.454 56.368)" fill="#77838d"/>
      <ellipse id="Ellipse_1939" data-name="Ellipse 1939" cx="10.513" cy="10.513" rx="10.513" ry="10.513" transform="matrix(0.695, 0.719, -0.719, 0.695, 15.124, 23.479)" fill="#77838d"/>
    </g>
    <g id="Group_524" data-name="Group 524" transform="translate(-8004.104 11449.963)">
      <ellipse id="Ellipse_1948" data-name="Ellipse 1948" cx="10.513" cy="10.513" rx="10.513" ry="10.513" transform="translate(63.154)" fill="#77838d"/>
      <ellipse id="Ellipse_1945" data-name="Ellipse 1945" cx="10.513" cy="10.513" rx="10.513" ry="10.513" transform="translate(22.912 49.961)" fill="#77838d"/>
      <ellipse id="Ellipse_1946" data-name="Ellipse 1946" cx="10.513" cy="10.513" rx="10.513" ry="10.513" transform="translate(0 113.792)" fill="#77838d"/>
    </g>
    <text id="Public_benefit" data-name="Public benefit" transform="translate(-7820.138 11363.115) rotate(-106)" fill="#fff" stroke="#fff" stroke-width="0.2" font-size="16" font-family="Inter" letter-spacing="0.05em" opacity="0.35"><tspan x="0" y="0">Public benefit</tspan></text>
    <text id="Impact_brands" data-name="Impact brands" transform="translate(-7590.801 11397.212) rotate(-59)" fill="#fff" stroke="#fff" stroke-width="0.2" font-size="16" font-family="Inter" letter-spacing="0.05em" opacity="0.35"><tspan x="0" y="0">Impact brands</tspan></text>
    <text id="Conscious_consumer" data-name="Conscious consumer" transform="translate(-7737.62 11355.116) rotate(-90)" fill="#fff" stroke="#fff" stroke-width="0.2" font-size="16" font-family="Inter" letter-spacing="0.05em" opacity="0.35"><tspan x="0" y="0">Conscious consumer</tspan></text>
    <text id="Sustainability" transform="translate(-7660.259 11366.223) rotate(-71)" fill="#fff" stroke="#fff" stroke-width="0.2" font-size="16" font-family="Inter" letter-spacing="0.05em" opacity="0.35"><tspan x="0" y="0">Sustainability</tspan></text>
    <text id="Token_economy_" data-name="Token economy " transform="translate(-7536.961 11447.104) rotate(-43)" fill="#fff" stroke="#fff" stroke-width="0.2" font-size="16" font-family="Inter" letter-spacing="0.05em" opacity="0.351"><tspan x="0" y="0">Token economy </tspan></text>
    <text id="Metaverse" transform="matrix(0.866, -0.5, 0.5, 0.866, -7491.438, 11508.035)" fill="#fff" stroke="#fff" stroke-width="0.2" font-size="16" font-family="Inter" letter-spacing="0.05em" opacity="0.351"><tspan x="0" y="0">Metaverse</tspan></text>
    <text id="Resilient_household" data-name="Resilient household" transform="translate(-7472.325 11577.992) rotate(-15)" fill="#fff" stroke="#fff" stroke-width="0.2" font-size="16" font-family="Inter" letter-spacing="0.05em" opacity="0.351"><tspan x="0" y="0">Resilient household</tspan></text>
    <text id="Education" transform="matrix(0.999, 0.035, -0.035, 0.999, -7465.619, 11656.956)" fill="#fff" stroke="#fff" stroke-width="0.2" font-size="16" font-family="Inter" letter-spacing="0.05em" opacity="0.351"><tspan x="0" y="0">Education</tspan></text>
    <text id="Financial_independence" data-name="Financial independence" transform="translate(-7481.152 11735.247) rotate(18)" fill="#fff" stroke="#fff" stroke-width="0.2" font-size="16" font-family="Inter" letter-spacing="0.05em" opacity="0.351"><tspan x="0" y="0">Financial independence</tspan></text>
    <text id="Self-care_health" data-name="Self-care &amp; health" transform="translate(-7519.103 11805.64) rotate(34)" fill="#fff" stroke="#fff" stroke-width="0.2" font-size="16" font-family="Inter" letter-spacing="0.05em" opacity="0.351"><tspan x="0" y="0">Self-care &amp; health</tspan></text>
    <text id="Collaborative_economy" data-name="Collaborative economy" transform="matrix(0.643, 0.766, -0.766, 0.643, -7577.834, 11862.43)" fill="#fff" stroke="#fff" stroke-width="0.2" font-size="16" font-family="Inter" letter-spacing="0.05em" opacity="0.351"><tspan x="0" y="0">Collaborative economy</tspan></text>
    <text id="Collective_ownership" data-name="Collective ownership" transform="matrix(0.407, 0.914, -0.914, 0.407, -7645.301, 11898.783)" fill="#fff" stroke="#fff" stroke-width="0.2" font-size="16" font-family="Inter" letter-spacing="0.05em" opacity="0.351"><tspan x="0" y="0">Collective ownership</tspan></text>
    <text id="Prosumer" transform="translate(-7726.096 11917.242) rotate(84)" fill="#fff" stroke="#fff" stroke-width="0.2" font-size="16" font-family="Inter" letter-spacing="0.05em" opacity="0.351"><tspan x="0" y="0">Prosumer</tspan></text>
    <text id="IoE_Internet_of_Everything_" data-name="IoE (Internet of Everything)" transform="translate(-7841.886 12132.373) rotate(-78)" fill="#fff" stroke="#fff" stroke-width="0.2" font-size="16" font-family="Inter" letter-spacing="0.05em" opacity="0.351"><tspan x="0" y="0">IoE (Internet of Everything)</tspan></text>
    <text id="Inclusive_innovation" data-name="Inclusive innovation" transform="translate(-7947.888 12030.179) rotate(-62)" fill="#fff" stroke="#fff" stroke-width="0.2" font-size="16" font-family="Inter" letter-spacing="0.05em" opacity="0.351"><tspan x="0" y="0">Inclusive innovation</tspan></text>
    <text id="Data_IP_asset_ownership_" data-name="Data, IP &amp; asset ownership " transform="translate(-8077.849 12009.852) rotate(-48)" fill="#fff" stroke="#fff" stroke-width="0.2" font-size="16" font-family="Inter" letter-spacing="0.05em" opacity="0.351"><tspan x="0" y="0">Data, IP &amp; asset ownership </tspan></text>
    <text id="Create-to-earn_economy" data-name="Create-to-earn economy" transform="matrix(0.857, -0.515, 0.515, 0.857, -8154.164, 11897.475)" fill="#fff" stroke="#fff" stroke-width="0.2" font-size="16" font-family="Inter" letter-spacing="0.05em" opacity="0.351"><tspan x="0" y="0">Create-to-earn economy</tspan></text>
    <text id="Decentralized_systems" data-name="Decentralized systems" transform="translate(-8192.883 11776.042) rotate(-16)" fill="#fff" stroke="#fff" stroke-width="0.2" font-size="16" font-family="Inter" letter-spacing="0.05em"><tspan x="0" y="0">Decentralized systems</tspan></text>
    <text id="Peer-to-peer_economy" data-name="Peer-to-peer economy" transform="matrix(1, -0.017, 0.017, 1, -8213.646, 11650.539)" fill="#fff" stroke="#fff" stroke-width="0.2" font-size="16" font-family="Inter" letter-spacing="0.05em" opacity="0.351"><tspan x="0" y="0">Peer-to-peer economy</tspan></text>
    <text id="Balanced_perspective" data-name="Balanced perspective" transform="matrix(0.97, 0.242, -0.242, 0.97, -8192.663, 11531.807)" fill="#fff" stroke="#fff" stroke-width="0.2" font-size="16" font-family="Inter" letter-spacing="0.05em" opacity="0.351"><tspan x="0" y="0">Balanced perspective</tspan></text>
    <text id="Systems_thinking" data-name="Systems thinking" transform="translate(-8117.978 11436.844) rotate(29)" fill="#fff" stroke="#fff" stroke-width="0.2" font-size="16" font-family="Inter" letter-spacing="0.05em" opacity="0.351"><tspan x="0" y="0">Systems thinking</tspan></text>
    <text id="Interest_Stakeholder_IS_" data-name="Interest Stakeholder (IS)" transform="translate(-8101.413 11309.993) rotate(44)" fill="#fff" stroke="#fff" stroke-width="0.2" font-size="16" font-family="Inter" letter-spacing="0.05em" opacity="0.351"><tspan x="0" y="0">Interest Stakeholder (IS)</tspan></text>
    <path id="Path_1395" data-name="Path 1395" d="M-6888.285,21462.021V21644.9l70-174.648" transform="translate(-857.105 -10083.72)" fill="none" stroke="#77838d" stroke-width="0.4"/>
    <path id="Path_1396" data-name="Path 1396" d="M-6752.934,21501.525-6885.9,21646.3l-71.115-174.027" transform="translate(-859.279 -10083.397)" fill="none" stroke="#77838d" stroke-width="0.4"/>
    <path id="Path_1397" data-name="Path 1397" d="M-6884.168,21643.736l-134.339-144.727" transform="translate(-861.223 -10082.552)" fill="none" stroke="#77838d" stroke-width="0.4"/>
    <text id="Agatonomy" transform="translate(-7795.62 11534.927)" fill="#fff" stroke="#fff" stroke-width="0.5" font-size="17" font-family="Inter" letter-spacing="0.05em" opacity="0.5"><tspan x="0" y="0">Agatonomy</tspan></text>
    <ellipse id="Ellipse_2065" data-name="Ellipse 2065" cx="10.513" cy="10.513" rx="10.513" ry="10.513" transform="translate(-7622.541 11406.691)" fill="#77838d"/>
    <ellipse id="Ellipse_2062" data-name="Ellipse 2062" cx="10.513" cy="10.513" rx="10.513" ry="10.513" transform="translate(-7686.348 11378.247)" fill="#77838d"/>
    <ellipse id="Ellipse_2063" data-name="Ellipse 2063" cx="10.513" cy="10.513" rx="10.513" ry="10.513" transform="translate(-7755.903 11369.8)" fill="#77838d"/>
    <ellipse id="Ellipse_2064" data-name="Ellipse 2064" cx="10.513" cy="10.513" rx="10.513" ry="10.513" transform="translate(-7825.36 11380.312)" fill="#77838d"/>
    <ellipse id="Ellipse_2066" data-name="Ellipse 2066" cx="10.513" cy="10.513" rx="10.513" ry="10.513" transform="translate(-7889.029 11406.67)" fill="#77838d"/>
    <path id="Path_1408" data-name="Path 1408" d="M-7999.113,11159.729l188.8,30.982-105.775,150.388" transform="translate(0 484.569)" fill="none" stroke="#77838d" stroke-width="0.4"/>
    <path id="Path_1409" data-name="Path 1409" d="M-7810.313,11190.711l-178,39.243" transform="translate(0 484.569)" fill="none" stroke="#fff" stroke-width="0.7"/>
    <path id="Path_1410" data-name="Path 1410" d="M-7808.769,11190.16l-149.654,100.62" transform="translate(0 484.569)" fill="none" stroke="#77838d" stroke-width="0.4"/>
    <g id="Group_523" data-name="Group 523" transform="translate(-8009.503 11633.48)">
      <ellipse id="Ellipse_1944" data-name="Ellipse 1944" cx="10.513" cy="10.513" rx="10.513" ry="10.513" transform="translate(0 0)" fill="#bccad6"/>
      <ellipse id="Ellipse_1940" data-name="Ellipse 1940" cx="10.513" cy="10.513" rx="10.513" ry="10.513" transform="matrix(0.695, 0.719, -0.719, 0.695, 93.531, 176.33)" fill="#bccad6"/>
      <ellipse id="Ellipse_1941" data-name="Ellipse 1941" cx="10.513" cy="10.513" rx="10.513" ry="10.513" transform="matrix(0.695, 0.719, -0.719, 0.695, 51.639, 126.538)" fill="#bccad6"/>
      <ellipse id="Ellipse_1942" data-name="Ellipse 1942" cx="10.513" cy="10.513" rx="10.513" ry="10.513" transform="matrix(0.695, 0.719, -0.719, 0.695, 21.284, 64.913)" fill="#bccad6"/>
    </g>
    <g id="Ellipse_2082" data-name="Ellipse 2082" transform="translate(-7824.364 11660.995)" fill="#fff" stroke="#658198" stroke-width="3">
      <ellipse cx="14.285" cy="14.285" rx="14.285" ry="14.285" stroke="none"/>
      <ellipse cx="14.285" cy="14.285" rx="12.785" ry="12.785" fill="none"/>
    </g>
    <ellipse id="Ellipse_2083" data-name="Ellipse 2083" cx="10.513" cy="10.513" rx="10.513" ry="10.513" transform="translate(-7998.268 11702.592)" fill="#fff"/>
    <g id="Ellipse_2084" data-name="Ellipse 2084" transform="translate(-8003.734 11697.729)" fill="none" stroke="#fff" stroke-width="1">
      <ellipse cx="15.421" cy="15.421" rx="15.421" ry="15.421" stroke="none"/>
      <ellipse cx="15.421" cy="15.421" rx="14.921" ry="14.921" fill="none"/>
    </g>
    <text id="Decentralisation_Blockchain" data-name="Decentralisation
&amp; Blockchain" transform="translate(-7828.821 11691.729)" fill="#fff" stroke="#fff" stroke-width="0.5" font-size="17" font-family="Inter" letter-spacing="0.05em"><tspan x="-143.148" y="0">Decentralisation</tspan><tspan x="-111.688" y="24">&amp; Blockchain</tspan></text>
  </g>
</svg>
